<svg id="Credit_card" height="512" viewBox="0 0 512 512" width="512" xmlns="http://www.w3.org/2000/svg" xmlns:xlink="http://www.w3.org/1999/xlink" data-name="Credit card"><linearGradient id="linear-gradient" gradientUnits="userSpaceOnUse" x1="23.674" x2="513.964" y1="496.597" y2="6.307"><stop offset="0" stop-color="#003f8a"/><stop offset=".518" stop-color="#00d7df"/><stop offset="1" stop-color="#006df0"/></linearGradient><linearGradient id="linear-gradient-2" x1="-64.462" x2="425.829" xlink:href="#linear-gradient" y1="408.462" y2="-81.829"/><linearGradient id="linear-gradient-3" x1="-42.462" x2="447.829" xlink:href="#linear-gradient" y1="430.462" y2="-59.829"/><linearGradient id="linear-gradient-5" x1="-18.462" x2="471.829" xlink:href="#linear-gradient" y1="454.462" y2="-35.829"/><linearGradient id="linear-gradient-6" x1="159.538" x2="649.829" xlink:href="#linear-gradient" y1="632.462" y2="142.171"/><path d="m440 289.61v-145.61a40.045 40.045 0 0 0 -40-40h-352a40.045 40.045 0 0 0 -40 40v192a40.045 40.045 0 0 0 40 40h296.4a80 80 0 1 0 95.6-86.39zm-416-129.61h400v32h-400zm24-40h352a24.027 24.027 0 0 1 24 24h-400a24.027 24.027 0 0 1 24-24zm-24 216v-128h400v80a80.11 80.11 0 0 0 -79.6 72h-296.4a24.027 24.027 0 0 1 -24-24zm400 96a64 64 0 1 1 64-64 64.072 64.072 0 0 1 -64 64z" fill="url(#linear-gradient)"/><path d="m136 224h-88a8 8 0 0 0 -8 8v40a8 8 0 0 0 8 8h88a8 8 0 0 0 8-8v-40a8 8 0 0 0 -8-8zm-8 40h-72v-24h72z" fill="url(#linear-gradient-2)"/><path d="m136 288h-88a8 8 0 0 0 0 16h88a8 8 0 0 0 0-16z" fill="url(#linear-gradient-3)"/><path d="m88 312h-40a8 8 0 0 0 0 16h40a8 8 0 0 0 0-16z" fill="url(#linear-gradient-3)"/><path d="m120 312h-8a8 8 0 0 0 0 16h8a8 8 0 0 0 0-16z" fill="url(#linear-gradient-5)"/><path d="m448 360h-16v-16a8 8 0 0 0 -16 0v16h-16a8 8 0 0 0 0 16h16v16a8 8 0 0 0 16 0v-16h16a8 8 0 0 0 0-16z" fill="url(#linear-gradient-6)"/></svg>